<svg xmlns="http://www.w3.org/2000/svg" width="162" height="130" viewBox="0 0 162 130">
  <defs>
    <linearGradient id="pA" x1="0" y1="0" x2="0" y2="1">
      <stop offset="0" stop-color="#9a74ff"/>
      <stop offset="1" stop-color="#5a24f0"/>
    </linearGradient>
    <linearGradient id="pB" x1="0" y1="0" x2="0" y2="1">
      <stop offset="0" stop-color="#7c4dff"/>
      <stop offset="1" stop-color="#3f12c4"/>
    </linearGradient>
    <linearGradient id="pC" x1="0" y1="0" x2="0" y2="1">
      <stop offset="0" stop-color="#b59bff"/>
      <stop offset="1" stop-color="#6a36f5"/>
    </linearGradient>
    <linearGradient id="edge" x1="0" y1="0" x2="0" y2="1">
      <stop offset="0" stop-color="#3a0fb0"/>
      <stop offset="1" stop-color="#25087a"/>
    </linearGradient>
    <radialGradient id="pin" cx=".35" cy=".3" r=".8">
      <stop offset="0" stop-color="#ffffff"/>
      <stop offset=".35" stop-color="#e9e1ff"/>
      <stop offset="1" stop-color="#a98bff"/>
    </radialGradient>
    <radialGradient id="pinDot" cx=".4" cy=".35" r=".7">
      <stop offset="0" stop-color="#8f66ff"/>
      <stop offset="1" stop-color="#4512d8"/>
    </radialGradient>
    <linearGradient id="gloss" x1="0" y1="0" x2="0" y2="1">
      <stop offset="0" stop-color="#fff" stop-opacity=".55"/>
      <stop offset="1" stop-color="#fff" stop-opacity="0"/>
    </linearGradient>
    <filter id="soft" x="-20%" y="-20%" width="140%" height="160%">
      <feGaussianBlur stdDeviation="4"/>
    </filter>
  </defs>

  <ellipse cx="81" cy="118" rx="62" ry="7" fill="#3a14b8" opacity=".28" filter="url(#soft)"/>

  <path d="M24 34 58 24 58 104 24 114Z" fill="url(#edge)" transform="translate(0 5)"/>
  <path d="M58 24 104 36 104 116 58 104Z" fill="url(#edge)" transform="translate(0 5)"/>
  <path d="M104 36 138 26 138 106 104 116Z" fill="url(#edge)" transform="translate(0 5)"/>

  <path d="M24 34 58 24 58 104 24 114Z" fill="url(#pA)"/>
  <path d="M58 24 104 36 104 116 58 104Z" fill="url(#pB)"/>
  <path d="M104 36 138 26 138 106 104 116Z" fill="url(#pA)"/>

  <path d="M24 34 58 24 58 52 24 62Z" fill="url(#gloss)" opacity=".7"/>
  <path d="M104 36 138 26 138 54 104 64Z" fill="url(#gloss)" opacity=".7"/>
  <path d="M58 24 104 36 104 54 58 42Z" fill="url(#gloss)" opacity=".35"/>

  <path d="M33 98c10-4 14-16 26-18s20 10 32 4 10-22 22-28 18 0 18 0"
        fill="none" stroke="#efe9ff" stroke-width="4" stroke-linecap="round" stroke-dasharray="1 9"/>

  <circle cx="33" cy="98" r="5" fill="#efe9ff"/>
  <circle cx="33" cy="98" r="2.2" fill="#5a24f0"/>

  <ellipse cx="117" cy="64" rx="11" ry="3.5" fill="#25087a" opacity=".45"/>
  <path d="M117 64c-2-9-17-19-17-33a17 17 0 0 1 34 0c0 14-15 24-17 33Z" fill="url(#pin)"/>
  <circle cx="117" cy="31" r="7.5" fill="url(#pinDot)"/>
  <ellipse cx="110" cy="22" rx="5" ry="3" fill="#fff" opacity=".8" transform="rotate(-30 110 22)"/>
</svg>
